# Blender v2.83.5 OBJ File: ''
# www.blender.org
o ship_Cube.001
v 0.781084 1.000000 -1.000000
v 0.689468 1.168210 -1.000000
v 0.723757 1.105256 -0.919498
v 0.746796 1.062955 -0.919498
v 0.699568 0.330004 -1.000000
v 0.362601 0.330004 -1.000000
v 0.325586 0.237831 -1.304697
v 0.736582 0.237831 -1.304697
v 0.781084 1.000000 0.000000
v 0.781084 1.000000 0.599756
v 0.781084 0.500000 0.599756
v 0.781084 0.574898 0.000000
v 0.281084 0.445836 0.000000
v 0.281084 0.500000 1.000000
v 0.000000 0.500000 1.000000
v 0.000000 0.445836 0.000000
v 0.173622 1.400000 1.000000
v 0.000000 1.400000 1.000000
v 0.000000 0.999438 1.930637
v 0.173622 0.999438 1.930637
v 0.281084 1.179665 0.000000
v 0.000000 1.179665 0.000000
v 0.781084 0.500000 -1.000000
v 0.281084 0.500000 -1.000000
v 0.000000 0.500000 -1.000000
v 0.281084 1.000000 -1.000000
v 0.281084 1.000000 0.000000
v 0.372700 1.168210 -0.134321
v 0.372700 1.168210 -1.000000
v 0.000000 1.000000 -1.000000
v 0.781084 0.445836 0.000000
v 0.281084 1.000000 1.000000
v 0.369608 0.588524 0.929138
v 0.369608 0.911476 0.929138
v 0.362601 0.330004 -0.134321
v 0.281084 0.763507 1.793829
v 0.281084 0.468594 1.622819
v 0.000000 0.468594 1.622819
v 0.173451 0.445312 2.236540
v 0.000000 0.445312 2.236540
v 0.173451 0.690475 2.378701
v 0.689468 1.168210 -0.134321
v 0.226161 0.445174 -1.304697
v 0.699568 0.330004 -0.134321
v 0.836008 0.445174 -1.304697
v 0.000000 0.690475 2.378701
v 0.836008 1.055022 -1.304697
v 0.724264 1.260187 -1.304697
v 0.337904 1.260187 -1.304697
v 0.226161 1.055022 -1.304697
v 0.654973 0.441051 -0.923826
v 0.714914 0.566052 -0.923826
v 0.347254 0.566052 -0.923826
v 0.407195 0.441051 -0.923826
v 0.714914 0.933712 -0.923826
v 0.647547 1.057400 -0.923826
v 0.414621 1.057400 -0.923826
v 0.347254 0.933712 -0.923826
v 1.597595 0.367528 0.163479
v 1.597595 0.329895 -0.298727
v 2.414106 0.213953 -0.597455
v 2.414106 0.235056 -0.272798
v 1.275713 0.367528 -1.331795
v 2.414106 0.235056 -1.138769
v 1.597595 0.419568 -0.298727
v 2.414106 0.264237 -0.597455
v 0.735276 1.069326 -0.206404
v 1.556655 1.563546 -1.493804
v 1.568816 1.541218 -1.493804
v 1.568816 1.541218 -1.057065
v 0.369608 0.588524 0.739688
v 0.369608 0.911476 0.739688
v 0.692561 0.588524 0.670618
v 0.692561 0.911476 0.670618
v 0.692561 0.588524 0.481168
v 0.692561 0.911476 0.481168
v -0.781084 1.000000 -1.000000
v -0.746796 1.062955 -0.919498
v -0.723757 1.105256 -0.919498
v -0.689468 1.168210 -1.000000
v -0.699568 0.330004 -1.000000
v -0.736582 0.237831 -1.304697
v -0.325586 0.237831 -1.304697
v -0.362601 0.330004 -1.000000
v -0.781084 1.000000 0.000000
v -0.781084 0.574898 0.000000
v -0.781084 0.500000 0.599756
v -0.781084 1.000000 0.599756
v -0.281084 0.445836 0.000000
v -0.281084 0.500000 1.000000
v -0.173622 1.400000 1.000000
v -0.173622 0.999438 1.930637
v -0.281084 1.179665 0.000000
v -0.781084 0.500000 -1.000000
v -0.281084 0.500000 -1.000000
v -0.281084 1.000000 -1.000000
v -0.372700 1.168210 -1.000000
v -0.372700 1.168210 -0.134321
v -0.281084 1.000000 0.000000
v -0.781084 0.445836 0.000000
v -0.281084 1.000000 1.000000
v -0.369608 0.911476 0.929138
v -0.369608 0.588524 0.929138
v -0.362601 0.330004 -0.134321
v -0.281084 0.763507 1.793829
v -0.281084 0.468594 1.622819
v -0.173451 0.445312 2.236540
v -0.173451 0.690475 2.378701
v -0.689468 1.168210 -0.134321
v -0.226161 0.445174 -1.304697
v -0.699568 0.330004 -0.134321
v -0.836008 0.445174 -1.304697
v -0.724264 1.260187 -1.304697
v -0.836008 1.055022 -1.304697
v -0.337904 1.260187 -1.304697
v -0.226161 1.055022 -1.304697
v -0.714914 0.566052 -0.923826
v -0.654973 0.441051 -0.923826
v -0.407195 0.441051 -0.923826
v -0.347254 0.566052 -0.923826
v -0.647547 1.057400 -0.923826
v -0.714914 0.933712 -0.923826
v -0.414621 1.057400 -0.923826
v -0.347254 0.933712 -0.923826
v -1.597595 0.367528 0.163479
v -2.414106 0.235056 -0.272798
v -2.414106 0.213953 -0.597455
v -1.597595 0.329895 -0.298727
v -2.414106 0.235056 -1.138769
v -1.275713 0.367528 -1.331795
v -1.597595 0.419568 -0.298727
v -2.414106 0.264237 -0.597455
v -0.735276 1.069326 -0.206404
v -1.568816 1.541218 -1.493804
v -1.556655 1.563546 -1.493804
v -1.568816 1.541218 -1.057065
v -0.369608 0.911476 0.739688
v -0.369608 0.588524 0.739688
v -0.692561 0.588524 0.670618
v -0.692561 0.911476 0.670618
v -0.692561 0.588524 0.481168
v -0.692561 0.911476 0.481168
vt 0.705345 0.760948
vt 0.690522 0.739705
vt 0.704527 0.726566
vt 0.767722 0.221039
vt 0.815044 0.283276
vt 0.764755 0.286495
vt 0.409588 0.732986
vt 0.523655 0.654791
vt 0.525107 0.733502
vt 0.275665 0.479883
vt 0.463406 0.428123
vt 0.463573 0.479905
vt 0.303695 0.972630
vt 0.141493 0.897429
vt 0.307889 0.941974
vt 0.488799 0.972630
vt 0.702361 0.637050
vt 0.644307 0.426186
vt 0.645107 0.474575
vt 0.696123 0.859674
vt 0.557092 0.808864
vt 0.700752 0.823350
vt 0.679490 0.909457
vt 0.778029 0.958488
vt 0.682208 0.963324
vt 0.347250 0.572110
vt 0.459231 0.575931
vt 0.290589 0.637051
vt 0.310706 0.714783
vt 0.289117 0.731101
vt 0.522736 0.833340
vt 0.329139 0.827412
vt 0.494675 0.503653
vt 0.306527 0.868615
vt 0.158275 0.849037
vt 0.487243 0.927918
vt 0.177933 0.791053
vt 0.291587 0.778127
vt 0.159153 0.426717
vt 0.275908 0.427257
vt 0.044017 0.458661
vt 0.044167 0.426186
vt 0.066629 0.811834
vt 0.490923 0.885368
vt 0.561478 0.763182
vt 0.829425 0.201339
vt 0.821915 0.233638
vt 0.489513 0.557297
vt 0.643772 0.510628
vt 0.637213 0.575421
vt 0.817227 0.316012
vt 0.764173 0.322630
vt 0.632308 0.610617
vt 0.052358 0.861448
vt 0.131660 0.926287
vt 0.036263 0.803099
vt 0.021992 0.852714
vt 0.780846 0.460225
vt 0.831364 0.414296
vt 0.839747 0.451568
vt 0.859323 0.519907
vt 0.792951 0.524959
vt 0.817261 0.049455
vt 0.865056 0.101865
vt 0.804400 0.087914
vt 0.775787 0.183203
vt 0.772141 0.420336
vt 0.888631 0.289705
vt 0.892324 0.316952
vt 0.890566 0.241001
vt 0.912427 0.418608
vt 0.938288 0.463269
vt 0.945736 0.124401
vt 0.931572 0.150260
vt 0.907201 0.389595
vt 0.900172 0.216499
vt 0.058055 0.531686
vt 0.103171 0.531686
vt 0.114085 0.554447
vt 0.543628 0.179389
vt 0.539993 0.329785
vt 0.458936 0.179152
vt 0.696831 0.328623
vt 0.598682 0.328076
vt 0.195222 0.179691
vt 0.189562 0.027285
vt 0.248903 0.028081
vt 0.347590 0.026662
vt 0.384572 0.235003
vt 0.598666 0.337179
vt 0.570229 0.745616
vt 0.757682 0.684292
vt 0.792477 0.852725
vt 0.750409 0.685941
vt 0.974813 0.683297
vt 0.877495 0.828706
vt 0.879166 0.595452
vt 0.690626 0.748144
vt 0.488119 0.029331
vt 0.378222 0.028777
vt 0.670725 0.026819
vt 0.141481 0.331276
vt 0.110537 0.178123
vt 0.324029 0.328138
vt 0.692552 0.381300
vt 0.727048 0.440105
vt 0.692552 0.440105
vt 0.411061 0.638936
vt 0.311657 0.654036
vt 0.389471 0.655254
vt 0.388520 0.716001
vt 0.692111 0.547064
vt 0.727867 0.597677
vt 0.693371 0.597676
vt 0.692111 0.488260
vt 0.726607 0.547064
vt 0.726607 0.488260
vt 0.049140 0.757251
vt 0.124465 0.698447
vt 0.124465 0.757251
vt 0.862701 0.839435
vt 0.795441 0.848217
vt 0.690522 0.739705
vt 0.705345 0.760948
vt 0.704527 0.726566
vt 0.815044 0.283276
vt 0.767722 0.221039
vt 0.764755 0.286495
vt 0.523655 0.654791
vt 0.409588 0.732986
vt 0.525107 0.733502
vt 0.275665 0.479883
vt 0.463573 0.479905
vt 0.141493 0.897429
vt 0.307889 0.941974
vt 0.487243 0.927918
vt 0.645107 0.474575
vt 0.696123 0.859674
vt 0.557092 0.808864
vt 0.522736 0.833340
vt 0.679490 0.909457
vt 0.347250 0.572110
vt 0.459231 0.575931
vt 0.310706 0.714783
vt 0.290589 0.637051
vt 0.289117 0.731101
vt 0.494675 0.503653
vt 0.306527 0.868615
vt 0.177933 0.791053
vt 0.291587 0.778127
vt 0.044017 0.458661
vt 0.158910 0.479343
vt 0.066629 0.811834
vt 0.158275 0.849037
vt 0.490923 0.885368
vt 0.561478 0.763182
vt 0.829425 0.201339
vt 0.775787 0.183203
vt 0.643772 0.510628
vt 0.489513 0.557297
vt 0.637213 0.575421
vt 0.817227 0.316012
vt 0.764173 0.322630
vt 0.632308 0.610617
vt 0.052358 0.861448
vt 0.780846 0.460225
vt 0.831364 0.414296
vt 0.772141 0.420336
vt 0.859323 0.519907
vt 0.792951 0.524959
vt 0.865056 0.101865
vt 0.817261 0.049455
vt 0.804400 0.087914
vt 0.888631 0.289705
vt 0.890566 0.241001
vt 0.821915 0.233638
vt 0.912427 0.418608
vt 0.839747 0.451568
vt 0.945736 0.124401
vt 0.883528 0.059471
vt 0.907201 0.389595
vt 0.931572 0.150260
vt 0.047140 0.621392
vt 0.059407 0.643914
vt 0.101819 0.643914
vt 0.539993 0.329785
vt 0.543628 0.179389
vt 0.458936 0.179152
vt 0.696831 0.328623
vt 0.731642 0.119827
vt 0.195222 0.179691
vt 0.189562 0.027285
vt 0.110537 0.178123
vt 0.347590 0.026662
vt 0.384572 0.235003
vt 0.598682 0.328076
vt 0.598666 0.337179
vt 0.570229 0.745616
vt 0.792477 0.852725
vt 0.757682 0.684292
vt 0.750409 0.685941
vt 0.877495 0.828706
vt 0.974813 0.683297
vt 0.879166 0.595452
vt 0.690626 0.748144
vt 0.488119 0.029331
vt 0.378222 0.028777
vt 0.670725 0.026819
vt 0.141481 0.331276
vt 0.031456 0.328920
vt 0.324029 0.328138
vt 0.727048 0.440105
vt 0.692552 0.381300
vt 0.692552 0.440105
vt 0.311657 0.654036
vt 0.411061 0.638936
vt 0.389471 0.655254
vt 0.727867 0.597677
vt 0.692111 0.547064
vt 0.693371 0.597676
vt 0.726607 0.547064
vt 0.692111 0.488260
vt 0.124465 0.698447
vt 0.049140 0.757251
vt 0.124465 0.757251
vt 0.862701 0.839435
vt 0.859822 0.589658
vt 0.795441 0.848217
vt 0.775311 0.904621
vt 0.158910 0.479343
vt 0.040911 0.890369
vt 0.883528 0.059471
vt 0.114085 0.621392
vt 0.047140 0.621392
vt 0.101819 0.643914
vt 0.059407 0.643914
vt 0.047140 0.554447
vt 0.731642 0.119827
vt 0.936571 0.881942
vt 0.031456 0.328920
vt 0.727048 0.381300
vt 0.049140 0.698447
vt 0.859822 0.589658
vt 0.702361 0.637050
vt 0.700752 0.823350
vt 0.775311 0.904621
vt 0.329139 0.827412
vt 0.892324 0.316952
vt 0.900172 0.216499
vt 0.938288 0.463269
vt 0.114085 0.621392
vt 0.114085 0.554447
vt 0.103171 0.531686
vt 0.058055 0.531686
vt 0.047140 0.554447
vt 0.248903 0.028081
vt 0.936571 0.881942
vt 0.727048 0.381300
vt 0.388520 0.716001
vt 0.726607 0.488260
vt 0.049140 0.698447
vn 0.8782 0.4783 -0.0000
vn 0.0000 -0.9572 0.2895
vn 1.0000 0.0000 0.0000
vn 0.0000 -0.9985 0.0541
vn 0.0000 0.9185 0.3954
vn 0.0000 0.9766 -0.2152
vn 0.0000 -0.9985 -0.0541
vn -0.8782 0.4783 0.0000
vn 0.0000 0.0000 -1.0000
vn 0.0299 -0.9974 0.0651
vn 0.0191 -0.9971 0.0741
vn 0.0000 -0.9959 0.0899
vn 0.6249 -0.0000 0.7807
vn -0.0000 1.0000 0.0000
vn -0.8951 -0.4459 -0.0033
vn -0.8404 -0.5413 -0.0272
vn -0.8334 -0.5519 -0.0299
vn 0.9550 0.2752 0.1104
vn 0.9374 0.3309 0.1084
vn 0.9268 0.3600 0.1072
vn 0.9721 0.2308 0.0415
vn 0.9982 0.0590 0.0106
vn 0.9647 0.2592 0.0466
vn 0.0000 -0.9987 -0.0504
vn 0.0000 -0.9990 -0.0441
vn 0.0000 -0.9993 -0.0379
vn 0.9809 -0.0976 0.1683
vn 0.0000 0.9842 -0.1768
vn 0.0000 0.6240 0.7814
vn -0.8767 -0.4204 0.2337
vn 0.0000 -1.0000 -0.0000
vn 0.0000 -0.7573 0.6531
vn 0.8767 -0.4204 0.2337
vn 0.8951 -0.4459 -0.0033
vn 0.8404 -0.5413 -0.0272
vn 0.9017 -0.4324 0.0000
vn 0.9300 0.3025 0.2089
vn 0.0000 0.8233 0.5677
vn 0.0000 -0.5016 0.8651
vn 0.8530 0.4646 0.2377
vn 0.0000 0.9573 0.2890
vn -0.8530 0.4646 0.2377
vn -0.9841 0.0000 0.1774
vn 0.9841 0.0000 0.1774
vn -0.8302 0.3981 -0.3903
vn 0.8302 0.3981 -0.3903
vn 0.0000 0.8823 -0.4707
vn -0.8063 -0.4392 -0.3962
vn 0.0000 -0.8827 -0.4700
vn 0.8063 -0.4392 -0.3962
vn -0.9530 -0.0000 -0.3030
vn 0.9530 0.0000 -0.3030
vn -0.1124 -0.9900 0.0847
vn -0.1173 -0.9907 0.0685
vn -0.1165 -0.9902 0.0764
vn -0.1270 -0.9918 -0.0114
vn -0.1329 -0.9910 -0.0173
vn -0.1543 -0.9873 -0.0385
vn 0.2160 0.9707 0.1049
vn 0.2167 0.9718 0.0930
vn 0.2169 0.9723 0.0874
vn 0.1413 0.9868 -0.0794
vn 0.1471 0.9864 -0.0737
vn 0.1302 0.9874 -0.0903
vn 0.8770 0.4805 0.0086
vn 0.8360 0.5487 0.0003
vn 0.8343 0.5513 0.0000
vn -0.4541 -0.2473 -0.8559
vn 0.5045 -0.8633 0.0129
vn 0.5034 -0.8640 0.0040
vn 0.5048 -0.8631 0.0159
vn 0.8927 0.4482 -0.0476
vn 0.9064 0.4223 0.0057
vn 0.8801 0.4748 0.0004
vn -0.1123 -0.9899 0.0869
vn -0.1128 -0.9896 0.0894
vn -0.2048 -0.9788 0.0010
vn -0.1863 -0.9823 -0.0213
vn -0.1595 -0.9858 -0.0534
vn 0.2223 0.9679 0.1175
vn 0.2233 0.9682 0.1130
vn 0.2241 0.9684 0.1090
vn 0.1774 0.9796 -0.0942
vn 0.1704 0.9816 -0.0858
vn 0.1889 0.9760 -0.1080
vn -1.0000 0.0000 0.0000
vn -0.4510 0.8910 0.0533
vn -0.4505 0.8910 0.0566
vn -0.4502 0.8910 0.0581
vn -0.0191 -0.9971 0.0741
vn -0.0299 -0.9974 0.0651
vn -0.6249 0.0000 0.7807
vn 0.8334 -0.5519 -0.0299
vn -0.9550 0.2752 0.1104
vn -0.9374 0.3309 0.1084
vn -0.9598 0.2579 0.1110
vn -0.9982 0.0590 0.0106
vn -0.9721 0.2308 0.0415
vn -0.9647 0.2592 0.0466
vn -0.0000 -0.9993 -0.0383
vn -0.9809 -0.0976 0.1683
vn -0.8334 -0.5518 -0.0299
vn -0.9300 0.3025 0.2089
vn 0.1173 -0.9907 0.0685
vn 0.1124 -0.9900 0.0847
vn 0.1165 -0.9902 0.0764
vn 0.1270 -0.9918 -0.0114
vn 0.1329 -0.9910 -0.0173
vn 0.1156 -0.9933 -0.0002
vn -0.2160 0.9707 0.1049
vn -0.2167 0.9718 0.0930
vn -0.2158 0.9703 0.1092
vn -0.1471 0.9864 -0.0737
vn -0.1413 0.9868 -0.0794
vn -0.1302 0.9874 -0.0903
vn -0.8360 0.5487 0.0003
vn -0.8770 0.4805 0.0086
vn -0.8343 0.5513 0.0000
vn 0.4541 -0.2473 -0.8559
vn -0.5034 -0.8640 0.0040
vn -0.5045 -0.8633 0.0129
vn -0.5048 -0.8631 0.0159
vn -0.8927 0.4482 -0.0476
vn -0.8801 0.4748 0.0004
vn -0.9064 0.4223 0.0057
vn 0.1123 -0.9899 0.0869
vn 0.1128 -0.9896 0.0894
vn 0.1863 -0.9823 -0.0213
vn 0.2048 -0.9788 0.0010
vn 0.1595 -0.9858 -0.0534
vn -0.2223 0.9679 0.1175
vn -0.2233 0.9682 0.1130
vn -0.2216 0.9676 0.1208
vn -0.1774 0.9796 -0.0942
vn -0.1704 0.9816 -0.0858
vn -0.1603 0.9843 -0.0737
vn 0.4510 0.8910 0.0533
vn 0.4505 0.8910 0.0566
vn 0.4511 0.8909 0.0522
vn 0.0433 -0.9976 0.0540
vn -0.9017 -0.4324 0.0000
vn 0.9598 0.2579 0.1110
vn 0.8334 -0.5518 -0.0299
vn -0.1172 -0.9910 0.0644
vn -0.1156 -0.9933 -0.0002
vn 0.2158 0.9703 0.1092
vn 0.1679 0.9844 -0.0531
vn 0.8835 0.4683 0.0101
vn 0.5029 -0.8643 0.0000
vn 0.9091 0.4165 0.0063
vn -0.2348 -0.9713 0.0378
vn 0.2216 0.9676 0.1208
vn 0.1603 0.9843 -0.0737
vn -0.4511 0.8909 0.0522
vn -0.0433 -0.9976 0.0540
vn -0.9268 0.3600 0.1072
vn 0.1172 -0.9910 0.0644
vn 0.1543 -0.9873 -0.0385
vn -0.2169 0.9723 0.0874
vn -0.1679 0.9844 -0.0531
vn -0.8835 0.4683 0.0101
vn -0.5029 -0.8643 0.0000
vn -0.9091 0.4165 0.0063
vn 0.2348 -0.9713 0.0378
vn -0.2241 0.9684 0.1090
vn -0.1889 0.9760 -0.1080
vn 0.4502 0.8910 0.0581
usemtl Material.001
s 1
f 2/1/1 4/2/1 1/3/1
f 6/4/2 8/5/2 5/6/2
f 10/7/3 12/8/3 9/9/3
f 14/10/4 16/11/4 13/12/4
f 18/13/5 20/14/5 17/15/5
f 17/15/6 22/16/6 18/13/6
f 1/3/3 12/8/3 23/17/3
f 13/12/7 25/18/7 24/19/7
f 26/20/8 28/21/8 29/22/8
f 26/23/9 25/24/9 30/25/9
f 11/26/10 13/12/11 31/27/12
f 14/28/13 34/29/13 32/30/13
f 10/7/14 27/31/14 32/32/14
f 24/19/15 35/33/16 13/12/17
f 32/34/18 20/14/19 36/35/20
f 32/34/21 21/36/22 17/15/23
f 32/34/3 37/37/3 14/38/3
f 14/10/24 38/39/25 15/40/24
f 38/39/25 39/41/26 40/42/26
f 36/35/27 39/43/27 37/37/27
f 30/25/28 21/36/28 26/23/28
f 27/44/3 26/23/3 21/36/3
f 9/9/29 28/21/29 27/31/29
f 2/1/14 28/21/14 42/45/14
f 6/4/30 43/46/30 7/47/30
f 44/48/31 6/49/31 5/50/31
f 31/27/32 35/33/32 44/48/32
f 5/6/33 45/51/33 23/52/33
f 23/53/34 44/48/35 5/50/36
f 36/35/37 20/14/37 41/54/37
f 19/55/38 41/54/38 20/14/38
f 40/56/39 41/54/39 46/57/39
f 2/58/40 47/59/40 48/60/40
f 2/58/41 49/61/41 29/62/41
f 29/63/42 50/64/42 26/65/42
f 26/65/43 43/46/43 24/66/43
f 1/67/44 45/51/44 47/59/44
f 45/51/45 51/68/45 52/69/45
f 43/46/46 54/70/46 7/47/46
f 7/47/47 51/68/47 8/5/47
f 47/59/48 56/71/48 48/60/48
f 48/60/49 57/72/49 49/61/49
f 50/64/50 57/73/50 58/74/50
f 45/51/51 55/75/51 47/59/51
f 43/46/52 58/74/52 53/76/52
f 51/77/9 54/78/9 53/79/9
f 60/80/53 62/81/54 59/82/55
f 60/80/56 64/83/57 61/84/58
f 65/85/59 62/86/60 66/87/61
f 65/85/62 64/88/63 63/89/64
f 61/84/3 66/90/3 62/81/3
f 1/3/65 67/91/66 9/9/67
f 3/92/68 69/93/68 4/94/68
f 4/95/69 70/96/70 67/97/71
f 42/45/72 9/9/72 67/91/72
f 42/45/73 3/98/74 2/1/1
f 31/99/75 59/82/55 11/100/76
f 23/101/77 60/80/78 31/99/79
f 12/102/80 59/103/81 65/85/82
f 23/104/83 65/85/84 63/89/85
f 33/105/3 72/106/3 34/107/3
f 11/108/13 33/109/13 14/28/13
f 10/7/13 73/110/13 11/108/13
f 10/7/13 34/29/13 74/111/13
f 73/112/14 71/113/14 33/114/14
f 74/115/86 75/116/86 73/112/86
f 74/115/31 72/106/31 76/117/31
f 72/118/13 75/119/13 76/120/13
f 3/92/87 70/121/88 68/122/89
f 69/93/1 68/122/1 70/121/1
f 78/123/8 80/124/8 77/125/8
f 82/126/2 84/127/2 81/128/2
f 86/129/86 88/130/86 85/131/86
f 16/11/4 90/132/4 89/133/4
f 92/134/5 18/13/5 91/135/5
f 91/135/6 22/16/6 93/136/6
f 77/125/86 86/129/86 85/131/86
f 25/18/7 89/133/7 95/137/7
f 96/138/1 98/139/1 99/140/1
f 25/24/9 96/141/9 30/25/9
f 89/133/90 87/142/91 100/143/12
f 102/144/92 90/145/92 101/146/92
f 88/130/14 99/140/14 85/131/14
f 104/147/35 95/137/34 89/133/93
f 101/148/94 92/134/95 91/135/96
f 93/136/97 101/148/98 91/135/99
f 106/149/86 101/148/86 90/150/86
f 38/39/25 90/132/24 15/40/24
f 38/39/25 107/151/26 106/152/100
f 107/153/101 105/154/101 106/149/101
f 93/136/28 30/25/28 96/141/28
f 99/155/86 93/136/86 96/141/86
f 98/139/29 85/131/29 99/140/29
f 98/139/14 80/124/14 109/156/14
f 84/127/33 110/157/33 95/158/33
f 84/159/31 111/160/31 81/161/31
f 100/143/32 104/147/32 89/133/32
f 112/162/30 81/128/30 94/163/30
f 94/164/15 111/160/16 100/143/102
f 105/154/103 108/165/103 92/134/103
f 108/165/38 19/55/38 92/134/38
f 108/165/39 40/56/39 46/57/39
f 80/166/42 114/167/42 77/168/42
f 115/169/41 80/166/41 97/170/41
f 116/171/40 97/172/40 96/173/40
f 110/157/44 96/173/44 95/158/44
f 77/168/43 112/162/43 94/163/43
f 112/162/46 118/174/46 82/126/46
f 119/175/45 110/157/45 83/176/45
f 118/174/47 83/176/47 82/126/47
f 121/177/50 114/167/50 113/178/50
f 115/169/49 121/177/49 113/178/49
f 116/171/48 123/179/48 115/180/48
f 122/181/52 112/162/52 114/167/52
f 110/157/51 124/182/51 116/171/51
f 122/183/9 121/184/9 123/185/9
f 126/186/104 128/187/105 125/188/106
f 128/187/107 129/189/108 130/190/109
f 131/191/110 126/192/111 125/193/112
f 129/194/113 131/191/114 130/195/115
f 127/196/86 132/197/86 129/189/86
f 133/198/116 77/125/117 85/131/118
f 134/199/119 79/200/119 78/201/119
f 136/202/120 78/203/121 133/204/122
f 109/156/123 133/198/123 85/131/123
f 79/205/124 109/156/125 80/124/8
f 125/188/106 100/206/126 87/207/127
f 128/187/128 94/208/129 100/206/130
f 86/209/131 125/193/132 87/210/133
f 94/211/134 131/191/135 86/209/136
f 137/212/86 103/213/86 102/214/86
f 103/215/92 87/216/92 90/145/92
f 139/217/92 88/130/92 87/216/92
f 88/130/92 102/144/92 101/146/92
f 138/218/14 139/219/14 103/220/14
f 141/221/3 140/222/3 139/219/3
f 140/222/31 137/212/31 102/214/31
f 141/223/92 137/224/92 142/225/92
f 79/200/137 136/226/138 133/227/139
f 134/199/8 136/226/8 135/228/8
f 2/1/1 3/98/1 4/2/1
f 6/4/2 7/47/2 8/5/2
f 10/7/3 11/108/3 12/8/3
f 14/10/4 15/40/4 16/11/4
f 18/13/5 19/55/5 20/14/5
f 17/15/6 21/36/6 22/16/6
f 1/3/3 9/9/3 12/8/3
f 13/12/7 16/11/7 25/18/7
f 26/20/8 27/31/8 28/21/8
f 26/23/9 24/229/9 25/24/9
f 11/26/10 14/10/140 13/12/11
f 14/28/13 33/109/13 34/29/13
f 10/7/14 9/9/14 27/31/14
f 24/19/15 6/49/141 35/33/16
f 32/34/18 17/15/142 20/14/19
f 32/34/21 27/44/3 21/36/22
f 32/34/3 36/35/3 37/37/3
f 14/10/24 37/230/100 38/39/25
f 38/39/25 37/230/100 39/41/26
f 36/35/27 41/54/27 39/43/27
f 30/25/28 22/16/28 21/36/28
f 9/9/29 42/45/29 28/21/29
f 2/1/14 29/22/14 28/21/14
f 6/4/30 24/66/30 43/46/30
f 44/48/31 35/33/31 6/49/31
f 31/27/32 13/12/32 35/33/32
f 5/6/33 8/5/33 45/51/33
f 23/53/34 31/27/143 44/48/35
f 19/55/38 46/231/38 41/54/38
f 40/56/39 39/43/39 41/54/39
f 2/58/40 1/67/40 47/59/40
f 2/58/41 48/60/41 49/61/41
f 29/63/42 49/232/42 50/64/42
f 26/65/43 50/64/43 43/46/43
f 1/67/44 23/52/44 45/51/44
f 45/51/45 8/5/45 51/68/45
f 43/46/46 53/76/46 54/70/46
f 7/47/47 54/70/47 51/68/47
f 47/59/48 55/75/48 56/71/48
f 48/60/49 56/71/49 57/72/49
f 50/64/50 49/232/50 57/73/50
f 45/51/51 52/69/51 55/75/51
f 43/46/52 50/64/52 58/74/52
f 53/79/9 58/233/9 55/234/9
f 58/233/9 57/235/9 55/234/9
f 57/235/9 56/236/9 55/234/9
f 55/234/9 52/237/9 53/79/9
f 52/237/9 51/77/9 53/79/9
f 60/80/53 61/84/144 62/81/54
f 60/80/56 63/238/145 64/83/57
f 65/85/59 59/103/146 62/86/60
f 65/85/62 66/87/147 64/88/63
f 61/84/3 64/83/3 66/90/3
f 1/3/65 4/2/148 67/91/66
f 3/92/68 68/122/68 69/93/68
f 4/95/69 69/239/149 70/96/70
f 42/45/73 67/91/150 3/98/74
f 31/99/75 60/80/53 59/82/55
f 23/101/77 63/238/151 60/80/78
f 12/102/80 11/240/152 59/103/81
f 23/104/83 12/102/153 65/85/84
f 33/105/3 71/241/3 72/106/3
f 11/108/13 73/110/13 33/109/13
f 10/7/13 74/111/13 73/110/13
f 10/7/13 32/30/13 34/29/13
f 73/112/14 75/116/14 71/113/14
f 74/115/86 76/117/86 75/116/86
f 74/115/31 34/107/31 72/106/31
f 72/118/13 71/242/13 75/119/13
f 3/92/87 67/243/154 70/121/88
f 78/123/8 79/205/8 80/124/8
f 82/126/2 83/176/2 84/127/2
f 86/129/86 87/216/86 88/130/86
f 16/11/4 15/40/4 90/132/4
f 92/134/5 19/55/5 18/13/5
f 91/135/6 18/13/6 22/16/6
f 77/125/86 94/244/86 86/129/86
f 25/18/7 16/11/7 89/133/7
f 96/138/1 97/245/1 98/139/1
f 25/24/9 95/246/9 96/141/9
f 89/133/90 90/132/155 87/142/91
f 102/144/92 103/215/92 90/145/92
f 88/130/14 101/247/14 99/140/14
f 104/147/35 84/159/36 95/137/34
f 101/148/94 105/154/156 92/134/95
f 93/136/97 99/155/86 101/148/98
f 106/149/86 105/154/86 101/148/86
f 38/39/25 106/152/100 90/132/24
f 38/39/25 40/42/26 107/151/26
f 107/153/101 108/165/101 105/154/101
f 93/136/28 22/16/28 30/25/28
f 98/139/29 109/156/29 85/131/29
f 98/139/14 97/245/14 80/124/14
f 84/127/33 83/176/33 110/157/33
f 84/159/31 104/147/31 111/160/31
f 100/143/32 111/160/32 104/147/32
f 112/162/30 82/126/30 81/128/30
f 94/164/15 81/161/141 111/160/16
f 108/165/38 46/231/38 19/55/38
f 108/165/39 107/153/39 40/56/39
f 80/166/42 113/178/42 114/167/42
f 115/169/41 113/178/41 80/166/41
f 116/171/40 115/180/40 97/172/40
f 110/157/44 116/171/44 96/173/44
f 77/168/43 114/167/43 112/162/43
f 112/162/46 117/248/46 118/174/46
f 119/175/45 120/249/45 110/157/45
f 118/174/47 119/175/47 83/176/47
f 121/177/50 122/181/50 114/167/50
f 115/169/49 123/250/49 121/177/49
f 116/171/48 124/182/48 123/179/48
f 122/181/52 117/248/52 112/162/52
f 110/157/51 120/249/51 124/182/51
f 123/185/9 124/251/9 122/183/9
f 124/251/9 120/252/9 122/183/9
f 120/252/9 119/253/9 118/254/9
f 118/254/9 117/255/9 120/252/9
f 117/255/9 122/183/9 120/252/9
f 126/186/104 127/196/157 128/187/105
f 128/187/107 127/196/158 129/189/108
f 131/191/110 132/256/159 126/192/111
f 129/194/113 132/256/160 131/191/114
f 127/196/86 126/186/86 132/197/86
f 133/198/116 78/123/161 77/125/117
f 134/199/119 135/228/119 79/200/119
f 136/202/120 134/257/162 78/203/121
f 79/205/124 133/198/163 109/156/125
f 125/188/106 128/187/105 100/206/126
f 128/187/128 130/190/164 94/208/129
f 86/209/131 131/191/165 125/193/132
f 94/211/134 130/195/166 131/191/135
f 137/212/86 138/258/86 103/213/86
f 103/215/92 139/217/92 87/216/92
f 139/217/92 140/259/92 88/130/92
f 88/130/92 140/259/92 102/144/92
f 138/218/14 141/221/14 139/219/14
f 141/221/3 142/260/3 140/222/3
f 140/222/31 142/260/31 137/212/31
f 141/223/92 138/261/92 137/224/92
f 79/200/137 135/228/167 136/226/138
